<?xml version="1.0" encoding="UTF-8"?>
<svg width="100" height="100" version="1.1" viewBox="0 0 26.458 26.458" xmlns="http://www.w3.org/2000/svg" xmlns:cc="http://creativecommons.org/ns#" xmlns:dc="http://purl.org/dc/elements/1.1/" xmlns:rdf="http://www.w3.org/1999/02/22-rdf-syntax-ns#">
 <metadata>
  <rdf:RDF>
   <cc:Work rdf:about="">
    <dc:format>image/svg+xml</dc:format>
    <dc:type rdf:resource="http://purl.org/dc/dcmitype/StillImage"/>
    <dc:title/>
   </cc:Work>
  </rdf:RDF>
 </metadata>
 <g shape-rendering="auto">
  <path d="m17.322 4.4568a0.44696 0.44696 0 0 0-0.44077 0.56904l0.61549 2.2989a0.4477 0.4477 0 1 0 0.86517-0.23068l-0.6176-2.2994a0.44696 0.44696 0 0 0-0.42229-0.33783zm5.4069 0.71367a0.44696 0.44696 0 0 0-0.39379 0.22804l-1.1893 2.0592a0.44711 0.44711 0 1 0 0.77385 0.44763l1.1888-2.0587a0.44696 0.44696 0 0 0-0.37954-0.6762zm-9.7317 2.6108a0.44696 0.44696 0 0 0-0.04434 5.405e-4 0.44696 0.44696 0 0 0-0.19162 0.83719l2.0613 1.1893a0.44696 0.44696 0 1 0 0.44552-0.77438l-2.0592-1.1893a0.44696 0.44696 0 0 0-0.21168-0.063344zm6.2119 0.45027a3.5636 3.5636 0 0 0-1.714 0.41121 3.5636 3.5636 0 0 0-1.856 2.6161l3.9104 0.03167c0.38345 0.0032 0.74933 0.17295 0.97602 0.43232 0.22669 0.25938 0.32455 0.57869 0.322 0.8884-0.0026 0.30971-0.10577 0.62864-0.33678 0.88417-0.23101 0.25554-0.60049 0.4186-0.98394 0.41543l-3.2501-0.02639a3.5636 3.5636 0 0 0 1.0288 0.95016l3.5726 0.07812a3.5636 3.5636 0 0 0 1.4316-4.7814 3.5636 3.5636 0 0 0-3.1007-1.8998zm6.838 1.2706a0.44696 0.44696 0 0 0-0.12141 0.01689l-2.2989 0.61549a0.44696 0.44696 0 1 0 0.23332 0.86253l2.2983-0.61549a0.44696 0.44696 0 0 0-0.11138-0.87942zm-10.374 3.0326a3.5636 3.5636 0 0 0 0.01689 0.06968l3.8481 0.03114c0.06492 6.22e-4 0.0332-0.0015 0.0285 0.0037s0.0072-0.01091 0.0074-0.03748c9.1e-5 -0.02377-0.0081-0.03582-0.0069-0.03537-0.0041 0-0.0059-3.24e-4 -0.02903-5.4e-4zm-1.098 0.04117a0.44696 0.44696 0 0 0-0.11877 0.01584l-0.0095 0.0026 0.26024 0.0021a0.44696 0.44696 0 0 0-0.13197-0.02059zm8.7071 1.1444a0.44696 0.44696 0 0 0-0.04487 5.4e-4 0.44696 0.44696 0 0 0-0.18898 0.8372l2.0592 1.1861a0.44711 0.44711 0 1 0 0.4471-0.77438l-2.0608-1.1861a0.44696 0.44696 0 0 0-0.21167-0.06336zm-11.421 0.1288a0.44696 0.44696 0 0 0 0.52681 0.22118l0.78705-0.21062zm4.3026 2.236-0.01214 0.02164 1.0204 0.02217a0.44696 0.44696 0 0 0 0.01109-0.02164zm3.8233 0.0834a0.44696 0.44696 0 0 0-0.0095 0.02112l0.82294 0.01742a0.44696 0.44696 0 0 0-9e-3 -0.02112zm-4.5634 1.1988-0.21642 0.37478a0.44713 0.44713 0 1 0 0.77385 0.44816l0.46294-0.8013zm4.792 0.10293 0.3542 1.3239a0.4477 0.4477 0 1 0 0.86517-0.23068l-0.28716-1.0732z" color="#000000" color-rendering="auto" dominant-baseline="auto" fill="#ffa100" image-rendering="auto" solid-color="#000000" style="font-feature-settings:normal;font-variant-alternates:normal;font-variant-caps:normal;font-variant-ligatures:normal;font-variant-numeric:normal;font-variant-position:normal;isolation:auto;mix-blend-mode:normal;shape-padding:0;text-decoration-color:#000000;text-decoration-line:none;text-decoration-style:solid;text-indent:0;text-orientation:mixed;text-transform:none;white-space:normal"/>
  <g fill="#80b2de" stroke-width="0">
   <path d="m5.3401 11.813a0.67256 0.67256 0 1 0-0.011287 1.3451l14.203 0.11476a0.67256 0.67256 0 1 0 0.01129-1.3451z" color="#000000" color-rendering="auto" dominant-baseline="auto" image-rendering="auto" solid-color="#000000" style="font-feature-settings:normal;font-variant-alternates:normal;font-variant-caps:normal;font-variant-ligatures:normal;font-variant-numeric:normal;font-variant-position:normal;isolation:auto;mix-blend-mode:normal;shape-padding:0;text-decoration-color:#000000;text-decoration-line:none;text-decoration-style:solid;text-indent:0;text-orientation:mixed;text-transform:none;white-space:normal"/>
   <path d="m0.78751 15.452a0.65571 0.65571 0 1 0-0.022574 1.3112l9.5059 0.16367a0.65571 0.65571 0 1 0 0.02258-1.3112z" color="#000000" color-rendering="auto" dominant-baseline="auto" image-rendering="auto" solid-color="#000000" style="font-feature-settings:normal;font-variant-alternates:normal;font-variant-caps:normal;font-variant-ligatures:normal;font-variant-numeric:normal;font-variant-position:normal;isolation:auto;mix-blend-mode:normal;shape-padding:0;text-decoration-color:#000000;text-decoration-line:none;text-decoration-style:solid;text-indent:0;text-orientation:mixed;text-transform:none;white-space:normal"/>
   <path d="m13.174 15.382a0.64918 0.64918 0 1 0-0.02822 1.298l8.3715 0.1806a0.64868 0.64868 0 1 0 0.02822-1.2962z" color="#000000" color-rendering="auto" dominant-baseline="auto" image-rendering="auto" solid-color="#000000" style="font-feature-settings:normal;font-variant-alternates:normal;font-variant-caps:normal;font-variant-ligatures:normal;font-variant-numeric:normal;font-variant-position:normal;isolation:auto;mix-blend-mode:normal;shape-padding:0;text-decoration-color:#000000;text-decoration-line:none;text-decoration-style:solid;text-indent:0;text-orientation:mixed;text-transform:none;white-space:normal"/>
   <path d="m3.3159 19.476a0.66506 0.66506 0 1 0-0.01505 1.33l11.647 0.13733a0.66506 0.66506 0 1 0 0.01506-1.33z" color="#000000" color-rendering="auto" dominant-baseline="auto" image-rendering="auto" solid-color="#000000" style="font-feature-settings:normal;font-variant-alternates:normal;font-variant-caps:normal;font-variant-ligatures:normal;font-variant-numeric:normal;font-variant-position:normal;isolation:auto;mix-blend-mode:normal;shape-padding:0;text-decoration-color:#000000;text-decoration-line:none;text-decoration-style:solid;text-indent:0;text-orientation:mixed;text-transform:none;white-space:normal"/>
  </g>
 </g>
</svg>
