<?xml version="1.0" encoding="UTF-8"?>
<svg width="100" height="100" version="1.1" viewBox="0 0 26.458 26.458" xmlns="http://www.w3.org/2000/svg" xmlns:cc="http://creativecommons.org/ns#" xmlns:dc="http://purl.org/dc/elements/1.1/" xmlns:rdf="http://www.w3.org/1999/02/22-rdf-syntax-ns#">
 <metadata>
  <rdf:RDF>
   <cc:Work rdf:about="">
    <dc:format>image/svg+xml</dc:format>
    <dc:type rdf:resource="http://purl.org/dc/dcmitype/StillImage"/>
    <dc:title/>
   </cc:Work>
  </rdf:RDF>
 </metadata>
 <path transform="scale(.26458)" d="m46.699 14.871a35.588 35.65 60.838 0 0-15.695 8.2051 35.588 35.65 60.838 0 0-8.6699 41.025c0.6068 0.44606 1.1704 0.96111 1.6797 1.5312 4.6956-0.24625 9.2183 1.6502 10.623 5.8984v0.007812c0.7825 2.3715 0.45298 4.7675-0.65234 6.873a35.588 35.65 60.838 0 0 44.652-2.4395 35.588 35.65 60.838 0 0 2.1797-2.168 35.588 35.65 60.838 0 1-34.633-10.814 35.588 35.65 60.838 0 1 0.51562-48.119zm-20.773 55.461a35.588 35.65 60.838 0 0 2.3867 3.0254 35.588 35.65 60.838 0 0 1.6152 1.623c0.15265-0.65945 0.1443-1.3035-0.044922-1.877h0.00586c-0.44772-1.3541-1.9063-2.4753-3.9629-2.7715z" fill="#ffa100" stroke-width="3.7796" style="paint-order:normal"/>
 <path d="m4.2747 17.136a1.8502 1.7278 2.0644 0 0-0.36053 0.07396 1.8502 1.7278 2.0644 0 0-1.159 1.0607 1.7174 1.7317 86.379 0 0-0.35454 0.07537 1.7174 1.7317 86.379 0 0-1.1042 2.1691 1.7174 1.7317 86.379 0 0 2.186 1.0929 1.7174 1.7317 86.379 0 0 0.72414-0.46219 1.9104 2.4246 71.908 0 0 2.624 0.5603 1.9104 2.4246 71.908 0 0 1.7047-2.5713 1.9104 2.4246 71.908 0 0-2.4556-1.1665 1.8502 1.7278 2.0644 0 0-1.805-0.83231z" fill="#fff" style="paint-order:normal"/>
</svg>
