<?xml version="1.0" encoding="UTF-8"?>
<svg width="100" height="100" version="1.1" viewBox="0 0 26.458 26.458" xmlns="http://www.w3.org/2000/svg" xmlns:cc="http://creativecommons.org/ns#" xmlns:dc="http://purl.org/dc/elements/1.1/" xmlns:rdf="http://www.w3.org/1999/02/22-rdf-syntax-ns#">
 <metadata>
  <rdf:RDF>
   <cc:Work rdf:about="">
    <dc:format>image/svg+xml</dc:format>
    <dc:type rdf:resource="http://purl.org/dc/dcmitype/StillImage"/>
    <dc:title/>
   </cc:Work>
  </rdf:RDF>
 </metadata>
 <path transform="scale(.26458)" d="m76.928 12.139a23.871 23.912 60.838 0 0-10.529 5.502 23.871 23.912 60.838 0 0-7.7637 20.301l13.863 0.11328a23.871 23.912 60.838 0 1 4.4297-25.916zm-17.297 30.531a23.871 23.912 60.838 0 0 0.083985 0.25781l14.682 0.11914c0.24019 0.002268 0.12286-0.005604 0.10547 0.013672-0.017348 0.019314 0.02652-0.040365 0.027344-0.13867 3.38e-4 -0.087937-0.029912-0.13255-0.025391-0.13086-0.015208-2e-6 -0.021646-0.001235-0.10742-0.001954l-14.766-0.11914zm18.543 3.3203c-0.062236 0.078303-0.10952 0.16283-0.17773 0.23828-0.85475 0.94549-2.2218 1.5488-3.6406 1.5371l-12.475-0.10156a23.871 23.912 60.838 0 0 2.5254 3.4805l17.383 0.38086c1.426-0.021457 2.8162 0.59801 3.6621 1.5645 0.8459 0.96645 1.1949 2.1562 1.1699 3.3008-0.019517 0.89631-0.28194 1.8039-0.81641 2.6035a23.871 23.912 60.838 0 0 12.545-5.8711 23.871 23.912 60.838 0 0 1.4629-1.4551 23.871 23.912 60.838 0 1-21.639-5.6777zm-7.8848 10.004a23.871 23.912 60.838 0 0 0.15625 0.082031l11.322 0.24414a2.3575 2.3575 0 0 1 0.091797 0.007813c0.030654 0.001831 0.013013 0.002588 0.03125 0.003906 0.003845-0.015801 0.009292-0.025133 0.009766-0.046875 4.32e-4 -0.019871-0.003374-0.027887-0.00586-0.042968-0.019072 6.29e-4 -0.001279 0.001443-0.035156 0.001953a2.3575 2.3575 0 0 1-0.083984 0l-11.486-0.25z" fill="#ffa100" stroke-width="3.7796" style="paint-order:normal"/>
 <g fill="#80b2de" shape-rendering="auto" stroke-width="0">
  <path d="m5.7852 10.584a0.65841 0.65841 0 1 0-0.01105 1.3168l13.904 0.11234a0.65841 0.65841 0 1 0 0.01105-1.3168z" color="#000000" color-rendering="auto" dominant-baseline="auto" image-rendering="auto" solid-color="#000000" style="font-feature-settings:normal;font-variant-alternates:normal;font-variant-caps:normal;font-variant-ligatures:normal;font-variant-numeric:normal;font-variant-position:normal;isolation:auto;mix-blend-mode:normal;shape-padding:0;text-decoration-color:#000000;text-decoration-line:none;text-decoration-style:solid;text-indent:0;text-orientation:mixed;text-transform:none;white-space:normal"/>
  <path d="m1.3284 14.146a0.64191 0.64191 0 1 0-0.022099 1.2836l9.3058 0.16022a0.64191 0.64191 0 1 0 0.0221-1.2836z" color="#000000" color-rendering="auto" dominant-baseline="auto" image-rendering="auto" solid-color="#000000" style="font-feature-settings:normal;font-variant-alternates:normal;font-variant-caps:normal;font-variant-ligatures:normal;font-variant-numeric:normal;font-variant-position:normal;isolation:auto;mix-blend-mode:normal;shape-padding:0;text-decoration-color:#000000;text-decoration-line:none;text-decoration-style:solid;text-indent:0;text-orientation:mixed;text-transform:none;white-space:normal"/>
  <path d="m13.454 14.078a0.63552 0.63552 0 1 0-0.02763 1.2707l8.1953 0.1768a0.63503 0.63503 0 1 0 0.02763-1.2689z" color="#000000" color-rendering="auto" dominant-baseline="auto" image-rendering="auto" solid-color="#000000" style="font-feature-settings:normal;font-variant-alternates:normal;font-variant-caps:normal;font-variant-ligatures:normal;font-variant-numeric:normal;font-variant-position:normal;isolation:auto;mix-blend-mode:normal;shape-padding:0;text-decoration-color:#000000;text-decoration-line:none;text-decoration-style:solid;text-indent:0;text-orientation:mixed;text-transform:none;white-space:normal"/>
  <path d="m3.8036 18.086a0.65106 0.65106 0 1 0-0.014733 1.302l11.402 0.13444a0.65106 0.65106 0 1 0 0.01474-1.302z" color="#000000" color-rendering="auto" dominant-baseline="auto" image-rendering="auto" solid-color="#000000" style="font-feature-settings:normal;font-variant-alternates:normal;font-variant-caps:normal;font-variant-ligatures:normal;font-variant-numeric:normal;font-variant-position:normal;isolation:auto;mix-blend-mode:normal;shape-padding:0;text-decoration-color:#000000;text-decoration-line:none;text-decoration-style:solid;text-indent:0;text-orientation:mixed;text-transform:none;white-space:normal"/>
 </g>
</svg>
