<?xml version="1.0" encoding="UTF-8"?>
<svg width="100" height="100" version="1.1" viewBox="0 0 26.458 26.458" xmlns="http://www.w3.org/2000/svg" xmlns:cc="http://creativecommons.org/ns#" xmlns:dc="http://purl.org/dc/elements/1.1/" xmlns:rdf="http://www.w3.org/1999/02/22-rdf-syntax-ns#">
 <metadata>
  <rdf:RDF>
   <cc:Work rdf:about="">
    <dc:format>image/svg+xml</dc:format>
    <dc:type rdf:resource="http://purl.org/dc/dcmitype/StillImage"/>
    <dc:title/>
   </cc:Work>
  </rdf:RDF>
 </metadata>
 <path d="m10.661 0.23a5.8547 5.4675 2.0644 0 0-1.1409 0.23406 5.8547 5.4675 2.0644 0 0-3.6677 3.3562 5.4347 5.48 86.379 0 0-1.1219 0.23853 5.4347 5.48 86.379 0 0-3.494 6.8641 5.4347 5.48 86.379 0 0 6.9175 3.4583 5.4347 5.48 86.379 0 0 2.2916-1.4626 6.045 7.6726 71.908 0 0 8.3034 1.773 6.045 7.6726 71.908 0 0 5.3944-8.1367 6.045 7.6726 71.908 0 0-7.7705-3.6911 5.8547 5.4675 2.0644 0 0-5.7119-2.6338z" fill="#eee" style="paint-order:normal"/>
 <g fill="#80b2de" stroke="#80b2de" stroke-linecap="round" stroke-linejoin="round" stroke-width=".38552">
  <path transform="scale(.26458)" d="m38.762 54.574a0.19278 0.19278 0 0 0-0.1543 0.19336v1.7129l-1.2109-1.2109a0.19278 0.19278 0 0 0-0.27344 0l-0.56055 0.56055a0.19278 0.19278 0 0 0 0 0.27344l2.0449 2.0215v4.7324l-4.0957-2.3691-0.75391-2.7754a0.19278 0.19278 0 0 0-0.22852-0.13281l-0.75391 0.19141a0.19278 0.19278 0 0 0-0.13867 0.23633l0.44141 1.6758-1.4824-0.86328a0.19278 0.19278 0 0 0-0.26562 0.066407l-0.38477 0.66406a0.19278 0.19278 0 0 0 0.074219 0.26562l1.4824 0.86328-1.6523 0.45117a0.19278 0.19278 0 0 0-0.14062 0.23633l0.19141 0.75195a0.19278 0.19278 0 0 0 0.23633 0.13281l2.7988-0.74609 4.0742 2.3633-4.0742 2.3613-2.7988-0.75195a0.19278 0.19278 0 0 0-0.23633 0.14062l-0.19141 0.75195a0.19278 0.19278 0 0 0 0.14062 0.22852l1.6523 0.45898-1.4824 0.86328a0.19278 0.19278 0 0 0-0.074219 0.26562l0.38477 0.66406a0.19278 0.19278 0 0 0 0.26562 0.066407l1.4824-0.86328-0.44141 1.6758a0.19278 0.19278 0 0 0 0.13867 0.23633l0.75391 0.19141a0.19278 0.19278 0 0 0 0.22852-0.13281l0.75391-2.7754 4.0957-2.3691v4.7305l-2.0449 2.0234a0.19278 0.19278 0 0 0 0 0.27344l0.56055 0.55274a0.19278 0.19278 0 0 0 0.27344 0l1.2109-1.2109v1.7207a0.19278 0.19278 0 0 0 0.19141 0.19141h0.77539a0.19278 0.19278 0 0 0 0.19336-0.19141v-1.7207l1.209 1.2109a0.19278 0.19278 0 0 0 0.27344 0l0.55469-0.55274a0.19278 0.19278 0 0 0 0-0.27344l-2.0371-2.0234v-4.7305l4.0957 2.3691 0.74609 2.7754a0.19278 0.19278 0 0 0 0.23633 0.13281l0.75195-0.19141a0.19278 0.19278 0 0 0 0.13281-0.23633l-0.43555-1.6758 1.4844 0.86328a0.19278 0.19278 0 0 0 0.26562-0.066407l0.38477-0.66406a0.19278 0.19278 0 0 0-0.074219-0.26562l-1.4844-0.86328 1.6543-0.45898a0.19278 0.19278 0 0 0 0.14062-0.22852l-0.19922-0.75195a0.19278 0.19278 0 0 0-0.23633-0.14062l-2.791 0.75195-4.0742-2.3613 4.0742-2.3633 2.791 0.74609a0.19278 0.19278 0 0 0 0.23633-0.13281l0.19922-0.75195a0.19278 0.19278 0 0 0-0.14062-0.23633l-1.6543-0.45117 1.4844-0.86328a0.19278 0.19278 0 0 0 0.074219-0.26562l-0.38477-0.66406a0.19278 0.19278 0 0 0-0.26562-0.066407l-1.4844 0.86328 0.43555-1.6758a0.19278 0.19278 0 0 0-0.13281-0.23633l-0.75195-0.19141a0.19278 0.19278 0 0 0-0.23633 0.13281l-0.74609 2.7754-4.0957 2.3691v-4.7324l2.0371-2.0215a0.19278 0.19278 0 0 0 0-0.27344l-0.55469-0.56055a0.19278 0.19278 0 0 0-0.27344 0l-1.209 1.2109v-1.7129a0.19278 0.19278 0 0 0-0.19336-0.19336h-0.77539a0.19278 0.19278 0 0 0-0.035156 0h-0.001953z"/>
  <path transform="scale(.26458)" d="m60.963 69.273a0.19278 0.19278 0 0 0-0.17969 0.19922v1.7109l-1.2109-1.209a0.19278 0.19278 0 0 0-0.27344 0l-0.55273 0.56055a0.19278 0.19278 0 0 0 0 0.27344l2.0371 2.0156v4.7305l-4.0898-2.3691-0.75195-2.7676a0.19278 0.19278 0 0 0-0.23633-0.14062l-0.74609 0.19922a0.19278 0.19278 0 0 0-0.14062 0.22852l0.43555 1.668-1.4844-0.85547a0.19278 0.19278 0 0 0-0.25781 0.074219l-0.39062 0.66406a0.19278 0.19278 0 0 0 0.074218 0.26562l1.4824 0.86328-1.6523 0.45117a0.19278 0.19278 0 0 0-0.13281 0.23633l0.19141 0.74414a0.19278 0.19278 0 0 0 0.23633 0.14062l2.791-0.75195 4.082 2.3691-4.082 2.3613-2.791-0.75195a0.19278 0.19278 0 0 0-0.23633 0.14062l-0.19141 0.74414a0.19278 0.19278 0 0 0 0.13281 0.23633l1.6602 0.45898-1.4902 0.86328a0.19278 0.19278 0 0 0-0.074218 0.25781l0.39062 0.66406a0.19278 0.19278 0 0 0 0.25781 0.074219l1.4844-0.85547-0.43555 1.668a0.19278 0.19278 0 0 0 0.14062 0.23633l0.74609 0.19141a0.19278 0.19278 0 0 0 0.23633-0.14062l0.75195-2.7676 4.0898-2.3691v4.7305l-2.0371 2.0234a0.19278 0.19278 0 0 0 0 0.27344l0.55273 0.55274a0.19278 0.19278 0 0 0 0.27344 0l1.2109-1.2109v1.7207a0.19278 0.19278 0 0 0 0.19922 0.19141h0.76758a0.19278 0.19278 0 0 0 0.19141-0.19141v-1.7266l1.2109 1.2168a0.19278 0.19278 0 0 0 0.27344 0l0.56055-0.55274a0.19278 0.19278 0 0 0 0-0.27344l-2.0449-2.0234v-4.7305l4.0977 2.3691 0.75391 2.7676a0.19278 0.19278 0 0 0 0.22852 0.14062l0.75195-0.19141a0.19278 0.19278 0 0 0 0.14062-0.23633l-0.44336-1.6758 1.4844 0.86328a0.19278 0.19278 0 0 0 0.26562-0.074219l0.38477-0.66406a0.19278 0.19278 0 0 0-0.066407-0.25781l-1.5-0.86328 1.6699-0.45898a0.19278 0.19278 0 0 0 0.13281-0.23633l-0.19336-0.74414a0.19278 0.19278 0 0 0-0.042969-0.082031 0.19278 0.19278 0 0 0-0.19336-0.058594l-2.7969 0.75195-4.082-2.3613 4.082-2.3691 2.7969 0.75195a0.19278 0.19278 0 0 0 0.23633-0.14062l0.19336-0.74414a0.19278 0.19278 0 0 0-0.13281-0.23633l-1.6621-0.45117 1.4922-0.86328a0.19278 0.19278 0 0 0 0.066407-0.26562l-0.38477-0.66406a0.19278 0.19278 0 0 0-0.26562-0.074219l-1.4844 0.86328 0.44336-1.6758a0.19278 0.19278 0 0 0-0.14062-0.22852l-0.75195-0.19922a0.19278 0.19278 0 0 0-0.22852 0.14062l-0.75391 2.7676-4.0977 2.3691v-4.7305l2.0449-2.0156a0.19278 0.19278 0 0 0 0-0.27344l-0.56055-0.56055a0.19278 0.19278 0 0 0-0.27344 0l-1.2109 1.2168v-1.7188a0.19278 0.19278 0 0 0-0.19141-0.19922h-0.76758a0.19278 0.19278 0 0 0-0.019531 0z"/>
  <path transform="scale(.26458)" d="m32.812 79.068a0.19278 0.19278 0 0 0-0.1543 0.19141v1.7129l-1.2109-1.2109a0.19278 0.19278 0 0 0-0.27344 0l-0.56055 0.5625a0.19278 0.19278 0 0 0 0 0.27148l2.0449 2.0156v4.7324l-4.0977-2.3691-0.75195-2.7695a0.19278 0.19278 0 0 0-0.23047-0.13281l-0.75195 0.19336a0.19278 0.19278 0 0 0-0.14062 0.23633l0.44336 1.6738-1.4844-0.86328a0.19278 0.19278 0 0 0-0.24219 0.037109 0.19278 0.19278 0 0 0-0.023438 0.029297l-0.38281 0.66406a0.19278 0.19278 0 0 0 0.066406 0.26758l1.4902 0.86328-1.6523 0.44922a0.19278 0.19278 0 0 0-0.14062 0.23633l0.19141 0.74609a0.19278 0.19278 0 0 0 0.23633 0.14062l2.7969-0.74609 4.082 2.3633-4.082 2.3613-2.7969-0.75391a0.19278 0.19278 0 0 0-0.23633 0.14062l-0.19141 0.74609a0.19278 0.19278 0 0 0 0.14062 0.23633l1.6602 0.45703-1.498 0.86524a0.19278 0.19278 0 0 0-0.066406 0.25781l0.38281 0.66406a0.19278 0.19278 0 0 0 0.26562 0.074218l1.4844-0.86328-0.44336 1.6758a0.19278 0.19278 0 0 0 0.14062 0.23438l0.75195 0.19336a0.19278 0.19278 0 0 0 0.23047-0.14062l0.75195-2.7676 4.0977-2.3711v4.7324l-2.0449 2.0234a0.19278 0.19278 0 0 0 0 0.27148l0.56055 0.55469a0.19278 0.19278 0 0 0 0.27344 0l1.2109-1.2109v1.7207a0.19278 0.19278 0 0 0 0.19141 0.19141h0.76758a0.19278 0.19278 0 0 0 0.19922-0.19141v-1.7207l1.2109 1.2109a0.19278 0.19278 0 0 0 0.27344 0l0.55274-0.55469a0.19278 0.19278 0 0 0 0-0.27148l-2.0371-2.0234v-4.7324l4.0977 2.3711 0.74609 2.7676a0.19278 0.19278 0 0 0 0.058594 0.095703 0.19278 0.19278 0 0 0 0.17773 0.044922l0.74414-0.19336a0.19278 0.19278 0 0 0 0.14062-0.23438l-0.43555-1.6699 1.4844 0.85742a0.19278 0.19278 0 0 0 0.25781-0.074218l0.39062-0.66406a0.19278 0.19278 0 0 0-0.072266-0.25781l-1.4922-0.86524 1.6621-0.45703a0.19278 0.19278 0 0 0 0.13281-0.23633l-0.19336-0.74609a0.19278 0.19278 0 0 0-0.23633-0.14062l-2.7891 0.75391-4.082-2.3613 4.082-2.3633 2.7891 0.74609a0.19278 0.19278 0 0 0 0.23633-0.14062l0.19336-0.74609a0.19278 0.19278 0 0 0-0.13281-0.23633l-1.6543-0.44922 1.4844-0.86328a0.19278 0.19278 0 0 0 0.072266-0.26758l-0.39062-0.66406a0.19278 0.19278 0 0 0-0.25781-0.066406l-1.4844 0.85742 0.43555-1.668a0.19278 0.19278 0 0 0-0.14062-0.23633l-0.74414-0.19336a0.19278 0.19278 0 0 0-0.23633 0.13281l-0.74609 2.7695-4.0977 2.3691v-4.7324l2.0371-2.0156a0.19278 0.19278 0 0 0 0-0.27148l-0.55274-0.5625a0.19278 0.19278 0 0 0-0.27344 0l-1.2109 1.2109v-1.7129a0.19278 0.19278 0 0 0-0.19922-0.19141h-0.76758a0.19278 0.19278 0 0 0-0.037109 0z"/>
 </g>
</svg>
