<svg width="100" height="100" viewBox="0 0 100 100" fill="none" xmlns="http://www.w3.org/2000/svg">
<g clip-path="url(#clip0_1_2)">
<path d="M42.6568 10.1353C41.1907 10.2948 39.7461 10.5912 38.3447 11.0199C35.1468 12.0033 32.2354 13.6574 29.8329 15.8558C27.4304 18.0543 25.6003 20.739 24.4823 23.705C23.0412 23.8575 21.6199 24.1597 20.242 24.6065C15.0239 26.3136 10.7011 30.0059 8.22458 34.8712C5.74801 39.7366 5.32054 45.3763 7.03621 50.5499C7.88571 53.1117 9.23585 55.4819 11.0095 57.5253C12.7832 59.5686 14.9457 61.2451 17.3736 62.4589C19.8014 63.6726 22.447 64.3999 25.1593 64.5993C27.8716 64.7987 30.5976 64.4661 33.1814 63.6207C36.4908 62.5299 39.47 60.6286 41.8427 58.0928C45.0315 61.966 49.8009 64.7072 55.4498 65.9134C61.0988 67.1196 67.3295 66.7272 73.226 64.7939C80.5324 62.3919 86.7851 57.8025 90.6087 52.0352C94.4323 46.2678 95.5135 39.795 93.6146 34.0407C91.9481 29.0006 88.1051 24.8514 82.7457 22.3056C77.3863 19.7598 70.8451 18.9764 64.2454 20.0899C62.0457 16.6692 58.8381 13.9099 55.0082 12.144C51.1783 10.378 46.8893 9.68052 42.6568 10.1353Z" fill="#EEEEEE"/>
<path d="M45.4369 45.0027C45.0022 45.0344 44.5849 45.1847 44.232 45.4368C43.879 45.6888 43.6043 46.0327 43.4386 46.4298L33.1798 70.9872C33.0242 71.3558 32.9682 71.7578 33.0172 72.154C33.0662 72.5502 33.2184 72.9272 33.4592 73.2482C33.7 73.5693 34.021 73.8235 34.3911 73.9862C34.7612 74.1488 35.1678 74.2143 35.5712 74.1764L52.1623 72.655L38.8268 96.5573C38.5328 97.0739 38.4513 97.6818 38.599 98.2558C38.7467 98.8298 39.1124 99.3261 39.6207 99.6424C40.1289 99.9588 40.7411 100.071 41.3309 99.956C41.9207 99.8409 42.4432 99.5074 42.7907 99.0242L65.5536 67.8998C65.81 67.5512 65.9625 67.139 65.9939 66.7097C66.0254 66.2803 65.9345 65.8509 65.7315 65.4696C65.5285 65.0884 65.2215 64.7705 64.8451 64.5518C64.4686 64.3331 64.0376 64.2223 63.6006 64.2317L47.067 64.5523L54.647 48.4652C54.813 48.1166 54.888 47.7326 54.8651 47.3481C54.8422 46.9637 54.7221 46.591 54.5159 46.2638C54.3096 45.9367 54.0236 45.6654 53.6839 45.4747C53.3442 45.284 52.9615 45.1799 52.5706 45.1718L45.6758 45.0033C45.596 44.9993 45.5167 44.9987 45.4369 45.0027Z" fill="#FFA100"/>
</g>
<defs>
<clipPath id="clip0_1_2">
<rect width="100" height="100" fill="white"/>
</clipPath>
</defs>
</svg>
