<svg width="100" height="100" viewBox="0 0 100 100" fill="none" xmlns="http://www.w3.org/2000/svg">
<path d="M42.3917 9.18427C40.9256 9.34385 39.481 9.64025 38.0796 10.069C34.8817 11.0523 31.9703 12.7064 29.5678 14.9048C27.1653 17.1033 25.3352 19.788 24.2172 22.754C22.7761 22.9066 21.3548 23.2087 19.9769 23.6555C14.7588 25.3626 10.436 29.0549 7.95947 33.9203C5.4829 38.7856 5.05543 44.4253 6.7711 49.5989C7.6206 52.1607 8.97074 54.5309 10.7444 56.5743C12.5181 58.6176 14.6806 60.2941 17.1085 61.5079C19.5363 62.7216 22.1819 63.4489 24.8942 63.6483C27.6065 63.8477 30.3325 63.5151 32.9163 62.6697C36.2257 61.5789 39.2048 59.6776 41.5776 57.1418C44.7664 61.015 49.5358 63.7562 55.1847 64.9624C60.8337 66.1686 67.0643 65.7762 72.9609 63.8429C80.2673 61.4409 86.52 56.8515 90.3436 51.0842C94.1672 45.3168 95.2484 38.844 93.3495 33.0897C91.6829 28.0497 87.84 23.9004 82.4806 21.3546C77.1212 18.8088 70.5799 18.0254 63.9803 19.1389C61.7806 15.7182 58.573 12.959 54.7431 11.193C50.9132 9.427 46.6242 8.72952 42.3917 9.18427V9.18427Z" fill="#EEEEEE"/>
<path d="M62.6691 72.3788L52.2779 89.0282Z" fill="#EEEEEE"/>
<path d="M62.6691 72.3788L52.2779 89.0282" stroke="#80B2DE" stroke-width="3.78335" stroke-linecap="round" stroke-linejoin="round"/>
<path d="M28.905 72.3788L18.5139 89.0282Z" fill="#EEEEEE"/>
<path d="M28.905 72.3788L18.5139 89.0282" stroke="#80B2DE" stroke-width="3.78335" stroke-linecap="round" stroke-linejoin="round"/>
</svg>
