<?xml version="1.0" encoding="UTF-8"?>
<svg width="100" height="100" version="1.1" viewBox="0 0 26.458 26.458" xmlns="http://www.w3.org/2000/svg" xmlns:cc="http://creativecommons.org/ns#" xmlns:dc="http://purl.org/dc/elements/1.1/" xmlns:rdf="http://www.w3.org/1999/02/22-rdf-syntax-ns#">
 <metadata>
  <rdf:RDF>
   <cc:Work rdf:about="">
    <dc:format>image/svg+xml</dc:format>
    <dc:type rdf:resource="http://purl.org/dc/dcmitype/StillImage"/>
    <dc:title/>
   </cc:Work>
  </rdf:RDF>
 </metadata>
 <g fill="#80b2de" stroke="#80b2de" stroke-linecap="round" stroke-linejoin="round" stroke-width="1.3229">
  <g transform="translate(.21062)">
   <path d="m21.747 15.291h-8.0577"/>
   <path d="m11.711 15.291h-7.4213"/>
  </g>
  <g transform="translate(.18827 .26254)">
   <path d="m15.081 17.704h-9.4881"/>
   <path d="m20.488 17.704h-3.4215"/>
  </g>
  <g transform="translate(-2.5e-7 .65995)">
   <path d="m4.2834 19.983h4.5064"/>
   <path d="m11.116 19.983h11.059"/>
  </g>
 </g>
 <path transform="scale(.26458)" d="m47.605 6.2305a25.822 25.867 60.838 0 0-11.389 5.9512 25.822 25.867 60.838 0 0-1.9531 36.484 25.822 25.867 60.838 0 0 1.3262 1.334h35.754a25.822 25.867 60.838 0 0 1.0156-1.0098 25.822 25.867 60.838 0 1-25.129-7.8477 25.822 25.867 60.838 0 1 0.375-34.912z" fill="#ffa100" stroke-width="3.7796" style="paint-order:normal"/>
</svg>
