<svg width="100" height="100" viewBox="0 0 100 100" fill="none" xmlns="http://www.w3.org/2000/svg">
<path d="M42.6568 10.1353C41.1907 10.2948 39.7461 10.5912 38.3447 11.0199C35.1468 12.0033 32.2354 13.6574 29.8329 15.8558C27.4304 18.0543 25.6003 20.739 24.4823 23.705C23.0412 23.8575 21.6199 24.1597 20.242 24.6065C15.0239 26.3136 10.7011 30.0059 8.22458 34.8712C5.74801 39.7366 5.32054 45.3763 7.03621 50.5499C7.88571 53.1117 9.23585 55.4819 11.0095 57.5253C12.7832 59.5686 14.9457 61.2451 17.3736 62.4589C19.8014 63.6726 22.447 64.3999 25.1593 64.5993C27.8716 64.7987 30.5976 64.4661 33.1814 63.6207C36.4908 62.5299 39.47 60.6286 41.8427 58.0928C45.0315 61.966 49.8009 64.7072 55.4498 65.9134C61.0988 67.1196 67.3295 66.7272 73.226 64.7939C80.5324 62.3919 86.7851 57.8025 90.6087 52.0352C94.4323 46.2678 95.5135 39.795 93.6146 34.0407C91.9481 29.0006 88.1051 24.8514 82.7457 22.3056C77.3863 19.7598 70.8451 18.9764 64.2454 20.0899C62.0457 16.6692 58.8381 13.9099 55.0082 12.144C51.1783 10.378 46.8893 9.68051 42.6568 10.1353V10.1353Z" fill="#EEEEEE"/>
<path d="M29.4369 43.0027C29.0022 43.0344 28.5849 43.1847 28.232 43.4368C27.879 43.6888 27.6043 44.0327 27.4386 44.4298L17.1798 68.9872C17.0242 69.3558 16.9682 69.7578 17.0172 70.154C17.0662 70.5502 17.2184 70.9272 17.4592 71.2482C17.7 71.5693 18.021 71.8235 18.3911 71.9862C18.7612 72.1488 19.1678 72.2143 19.5712 72.1764L36.1623 70.655L22.8268 94.5573C22.5328 95.0739 22.4513 95.6818 22.599 96.2558C22.7467 96.8298 23.1124 97.3261 23.6207 97.6424C24.1289 97.9588 24.7411 98.071 25.3309 97.956C25.9207 97.8409 26.4432 97.5074 26.7907 97.0242L49.5536 65.8998C49.81 65.5512 49.9625 65.139 49.9939 64.7097C50.0254 64.2803 49.9345 63.8509 49.7315 63.4696C49.5285 63.0884 49.2215 62.7705 48.8451 62.5518C48.4686 62.3331 48.0376 62.2223 47.6006 62.2317L31.067 62.5523L38.647 46.4652C38.813 46.1166 38.888 45.7326 38.8651 45.3481C38.8422 44.9637 38.7221 44.591 38.5159 44.2638C38.3096 43.9367 38.0236 43.6654 37.6839 43.4747C37.3442 43.284 36.9615 43.1799 36.5706 43.1718L29.6758 43.0033C29.596 42.9993 29.5167 42.9987 29.4369 43.0027Z" fill="#FFA100"/>
<path d="M62.4369 43.0027C62.0022 43.0344 61.5849 43.1847 61.232 43.4368C60.879 43.6888 60.6043 44.0327 60.4386 44.4298L50.1798 68.9872C50.0242 69.3558 49.9682 69.7578 50.0172 70.154C50.0662 70.5502 50.2184 70.9272 50.4592 71.2482C50.7 71.5693 51.021 71.8235 51.3911 71.9862C51.7612 72.1488 52.1678 72.2143 52.5712 72.1764L69.1623 70.655L55.8268 94.5573C55.5328 95.0739 55.4513 95.6818 55.599 96.2558C55.7467 96.8298 56.1124 97.3261 56.6207 97.6424C57.1289 97.9588 57.7411 98.071 58.3309 97.956C58.9207 97.8409 59.4432 97.5074 59.7907 97.0242L82.5536 65.8998C82.81 65.5512 82.9625 65.139 82.9939 64.7097C83.0254 64.2803 82.9345 63.8509 82.7315 63.4696C82.5285 63.0884 82.2215 62.7705 81.8451 62.5518C81.4686 62.3331 81.0376 62.2223 80.6006 62.2317L64.067 62.5523L71.647 46.4652C71.813 46.1166 71.888 45.7326 71.8651 45.3481C71.8422 44.9637 71.7221 44.591 71.5159 44.2638C71.3096 43.9367 71.0236 43.6654 70.6839 43.4747C70.3442 43.284 69.9615 43.1799 69.5706 43.1718L62.6758 43.0033C62.596 42.9993 62.5167 42.9987 62.4369 43.0027Z" fill="#FFA100"/>
</svg>
